<svg width="39" height="37" viewBox="0 0 39 37" fill="none" xmlns="http://www.w3.org/2000/svg">
<path d="M1.51636 29.5232C1.51636 31.3545 2.18743 32.9041 3.52956 34.1719C4.8717 35.4398 6.49447 36.0854 8.39786 36.1089H31.2752C33.1542 36.1089 34.7648 35.4632 36.1069 34.1719C37.4491 32.8806 38.1201 31.331 38.1201 29.5232V7.51211C38.1201 5.68078 37.4491 4.11947 36.1069 2.82815C34.7648 1.53683 33.1542 0.891174 31.2752 0.891174H8.39786C6.49447 0.891174 4.8717 1.53683 3.52956 2.82815C2.18743 4.11947 1.51636 5.68078 1.51636 7.51211V13.0061L6.09183 10.2591V7.51211C6.09183 6.90167 6.31145 6.38514 6.7507 5.96253C7.18994 5.53991 7.739 5.31687 8.39786 5.29339H31.2752C31.8853 5.29339 32.4221 5.51644 32.8858 5.96253C33.3494 6.40862 33.5691 6.92514 33.5447 7.51211V29.5232C33.5447 30.1336 33.325 30.6502 32.8858 31.0728C32.4465 31.4954 31.9097 31.7067 31.2752 31.7067H8.39786C7.7634 31.7067 7.21434 31.4954 6.7507 31.0728C6.28705 30.6502 6.06743 30.1336 6.09183 29.5232V26.7762L1.51636 24.0292L1.51636 29.5232ZM1.51636 18.5L10.6673 25.121V20.7188H19.8182V16.3165H10.6673V11.9143L1.51636 18.5Z" fill="#EFEFEF"/>
<path fill-rule="evenodd" clip-rule="evenodd" d="M2.92353 2.18204C4.43424 0.72853 6.27596 0 8.39785 0H31.2752C33.376 0 35.2046 0.730776 36.7129 2.18204C38.2252 3.63708 39 5.42999 39 7.51207V29.5231C39 31.5853 38.2226 33.3654 36.7129 34.818C35.2046 36.2692 33.376 37 31.2752 37H8.3925L8.38714 36.9999C6.27364 36.9739 4.43817 36.2488 2.92939 34.8236C1.41187 33.39 0.63645 31.6058 0.63645 29.5231V22.465L6.97172 26.2685V29.5412L6.971 29.5592C6.9576 29.8944 7.06267 30.1582 7.33931 30.4104C7.63835 30.6829 7.97665 30.8155 8.39785 30.8155H31.2752C31.6959 30.8155 32.0124 30.6839 32.2797 30.4267C32.5451 30.1713 32.6647 29.8879 32.6647 29.5231V7.49332L32.6655 7.47458C32.6781 7.17289 32.5804 6.89781 32.2797 6.60856C31.9709 6.31142 31.648 6.18449 31.2752 6.18449H8.41454C7.95725 6.20356 7.62317 6.3522 7.35671 6.60856C7.09131 6.86392 6.97172 7.14733 6.97172 7.51207V10.7667L0.63645 14.5703V7.51207C0.63645 5.42999 1.41122 3.63708 2.92353 2.18204ZM8.39785 1.78227C6.71296 1.78227 5.30915 2.34506 4.13558 3.47419C2.96361 4.60178 2.39625 5.9315 2.39625 7.51207V11.4418L5.21192 9.75137V7.51207C5.21192 6.65593 5.53157 5.90628 6.14466 5.31642C6.75394 4.73021 7.51379 4.43317 8.36691 4.40277L8.38238 4.40222H31.2752C32.1226 4.40222 32.8733 4.72138 33.4918 5.31642C34.1136 5.91465 34.4547 6.66551 34.4245 7.52916V29.5231C34.4245 30.3793 34.1049 31.1289 33.4918 31.7188C32.8807 32.3068 32.1235 32.5978 31.2752 32.5978H8.39785C7.55013 32.5978 6.79032 32.3078 6.16207 31.7351C5.51619 31.1464 5.18216 30.3841 5.21192 29.5066V27.2839L2.39625 25.5934V29.5231C2.39625 31.1032 2.96297 32.4181 4.12972 33.5202C5.30402 34.6295 6.71241 35.1958 8.40342 35.2177H31.2752C32.9324 35.2177 34.325 34.6572 35.5009 33.5258C36.6754 32.3957 37.2402 31.0767 37.2402 29.5231V7.51207C37.2402 5.9315 36.6728 4.60178 35.5009 3.47419C34.325 2.34281 32.9324 1.78227 31.2752 1.78227H8.39785ZM11.5472 10.1878V15.4254H20.6981V21.6099H11.5472V26.8527L0 18.4981L11.5472 10.1878ZM3.0327 18.5019L9.78739 23.3891V19.8276H18.9383V17.2076H9.78739V13.6407L3.0327 18.5019Z" fill="#EFEFEF"/>
</svg>
