<svg width="150" height="124" viewBox="0 0 150 124" fill="none" xmlns="http://www.w3.org/2000/svg">
<path fill-rule="evenodd" clip-rule="evenodd" d="M7.25808 85.9656C11.2666 85.9656 14.5162 88.6517 14.5162 91.965V109.989C14.5162 111.093 15.5994 111.989 16.9355 111.989H133.064C134.401 111.989 135.484 111.093 135.484 109.989V91.965C135.484 88.6517 138.734 85.9656 142.742 85.9656C146.75 85.9656 150 88.6517 150 91.965V109.989C150 117.72 142.418 123.987 133.064 123.987H16.9355C7.58227 123.987 0 117.72 0 109.989V91.965C0 88.6517 3.24959 85.9656 7.25808 85.9656Z" fill="black"/>
<path fill-rule="evenodd" clip-rule="evenodd" d="M76.9576 10.6458C80.966 10.6458 84.2157 13.3318 84.2157 16.6451V81.3236C84.2157 84.6368 80.966 87.323 76.9576 87.323C72.9492 87.323 69.6995 84.6368 69.6995 81.3236V16.6451C69.6995 13.3318 72.9492 10.6458 76.9576 10.6458Z" fill="black"/>
<path fill-rule="evenodd" clip-rule="evenodd" d="M71.8837 1.70809C74.7037 -0.569362 79.2076 -0.569362 82.0276 1.70809L114.388 27.84C117.254 30.1555 117.309 33.9538 114.507 36.3239C111.705 38.6939 107.111 38.7381 104.243 36.4227L76.9556 14.3867L49.6681 36.4227C46.8008 38.7381 42.2056 38.6939 39.4044 36.3239C36.603 33.9538 36.6566 30.1555 39.5239 27.84L71.8837 1.70809Z" fill="black"/>
</svg>
